<svg id="Capa_1" data-name="Capa 1" xmlns="http://www.w3.org/2000/svg" viewBox="0 0 1080 964.43"><defs><style>.cls-1,.cls-11,.cls-12{fill:#e48013;}.cls-2{fill:#eb8e1c;}.cls-3{fill:#c67515;}.cls-4{fill:#fff;}.cls-5{font-size:124.96px;font-family:GreatVibes-Regular, Great Vibes;}.cls-5,.cls-6{fill:#f5f2e8;}.cls-6{font-size:257.79px;font-family:HaginCapsThin, Hagin Caps Thin;}.cls-7{letter-spacing:-0.03em;}.cls-8{letter-spacing:0em;}.cls-9{letter-spacing:-0.01em;}.cls-10{letter-spacing:0em;}.cls-11{font-size:256.79px;}.cls-11,.cls-12{font-family:HaginCapsMedium, Hagin Caps Medium;}.cls-12{font-size:57.79px;}.cls-13{letter-spacing:-0.02em;}.cls-14{letter-spacing:-0.01em;}.cls-15{letter-spacing:-0.02em;}</style></defs><path class="cls-1" d="M353.35,149.35c-1,3.87-2.22,8.43-3.43,13q-6.06,22.82-12.15,45.63c-1.11,4.17-4.1,6.09-7.71,5-2.57-.76-3.63-2.75-4.24-5.19q-4.41-17.7-8.91-35.37-8.34-32.94-16.67-65.87a8.16,8.16,0,0,1-.45-4.13A5.89,5.89,0,0,1,304.11,98a5.7,5.7,0,0,1,5.95,1.8q12.87,13.45,25.72,27c4.83,5.06,9.63,10.15,14.51,15.16A10.12,10.12,0,0,1,353.35,149.35Z"/><path class="cls-2" d="M360.41,141.44a9.48,9.48,0,0,1-6.9-3.15q-15.81-16.63-31.69-33.21-3.81-4-7.61-8t-1.5-8c1.6-2.6,4.1-3.3,7.86-2.13l71.6,22.37c7.49,2.34,15,4.66,22.44,7.07,3.83,1.24,5.43,4.88,3.8,8.31a6,6,0,0,1-4.23,3.22q-25.71,6.57-51.42,13.12A22.26,22.26,0,0,1,360.41,141.44Z"/><path class="cls-3" d="M342.53,210c.8-2.9,1.8-6.61,2.85-10.31,4.35-15.4,8.74-30.79,13.06-46.19,1-3.7,2.85-6.47,6.82-7.52,17-4.5,34-9.1,51.05-13.62,4-1,7.16,1,7.73,4.84a6,6,0,0,1-1.89,5.21q-19,19.92-38.09,39.83-15.22,15.93-30.42,31.88a15.43,15.43,0,0,1-1.72,1.62,5.65,5.65,0,0,1-6.39.48C343.36,215.12,342.41,213.3,342.53,210Z"/><path class="cls-4" d="M684.42,154.94c6.14,7.35,8,15.64,6.65,24.75-.46,3.13-1.36,3.81-4.52,3.86-1.66,0-3.33.07-5,0-3.18-.15-4-1-4.09-4.15-.09-2.89-.09-5.78-.21-8.67a12.39,12.39,0,0,0-12.56-12.16q-16.5-.08-33-.09c-4.13,0-5.51,1.37-5.51,5.49,0,4.91.06,9.82.08,14.73,0,3.92-.88,4.85-4.71,4.87-1.66,0-3.32.06-5,0-2.94-.13-3.87-1-4-4-.09-2.45,0-4.91,0-7.37V148.73c0-3.66.75-4.39,4.48-4.39h53.73c4.12,0,5.5-1.48,5.3-5.6a3.92,3.92,0,0,0-3.89-4.09c-1.39-.11-2.79,0-4.19,0H617.67c-4.52,0-5.12-.62-5.11-5.16,0-2.19,0-4.39.09-6.58s1.12-3.44,3.4-3.48c.69,0,1.39-.07,2.09-.06q29.34.12,58.69.28c9,.07,13.17,4.09,13.89,13.19a65.92,65.92,0,0,1,0,10.23C690.4,147.89,688.82,152.09,684.42,154.94Z"/><path class="cls-4" d="M487.8,119.32q13.89,0,27.79,0c4.41,0,5.16.76,5.14,5.22a40,40,0,0,1-.21,7.09,2.91,2.91,0,0,1-2.95,2.76c-1.22.06-2.43.2-3.65.2H464.65c-5.84,0-7.19,1.19-7.28,7q-.15,10.4.06,20.78c.09,4.3,1.43,5.68,5.73,5.71,17.2.13,34.41.14,51.61.19,5.35,0,6,.62,6,6.07,0,1.75.09,3.51,0,5.26-.21,3.07-1,3.79-4,4-.52,0-1,0-1.57,0q-23.44,0-46.91,0c-3.84,0-7.68-.12-11.51-.28-7.15-.3-12.33-5.7-12.81-14.08a289.66,289.66,0,0,1,0-35.48c.5-7.82,4.77-14.45,15.11-14.16,4.95.14,12.63-.12,18.91-.22C483.23,119.23,487.6,119.32,487.8,119.32Z"/><path class="cls-4" d="M566,183.53H530.41c-3.23,0-3.37-.15-3.38-3.43q0-15,0-30c0-4.28,1.55-5.79,5.85-5.79h68.37c3.63,0,4.2.59,4.21,4.3,0,2,0,4,0,6.05-.05,3.12-.79,3.86-3.91,3.86H545.23c-3.75,0-4,.27-4,4,0,6,0,6,5.86,6h53.17c3.81,0,5.19,1.36,5.25,5.2,0,2.19-.06,4.39,0,6.58.09,2.37-1,3.25-3.3,3.23C590.14,183.5,578.09,183.53,566,183.53Z"/><path class="cls-4" d="M699.76,119.31c6.27,0,9,1.7,11.82,6.66,7.12,12.64,14.76,25,22.2,37.44,2,3.39,3.61,3.41,5.6.08,7.9-13.2,15.83-26.38,23.62-39.64,1.83-3.12,4.07-4.37,7.81-4.55,2.08,0,3.84,0,5.76,0,3.63,0,4.74,1.89,2.9,5-3.28,5.58-6.64,11.11-10,16.65q-10.83,18-21.68,35.91c-5.82,9.64-17,9.66-22.76,0q-15.82-26.26-31.69-52.53c-.79-1.29-1.2-2.59-.46-4s2.09-1.11,3.46-1.18C697.55,119.23,698.63,119.31,699.76,119.31Z"/><path class="cls-4" d="M565.89,134.59H530.53c-3.13,0-3.62-.46-3.65-3.65,0-2.45-.07-4.92.13-7.35.24-3,1.63-4.23,4.58-4.23q34.57,0,69.14,0c3.19,0,4.62,1.43,4.73,4.64.07,2.37,0,4.73,0,7.1,0,3.15-.34,3.49-3.43,3.49Q584,134.61,565.89,134.59Z"/><text class="cls-5" transform="translate(354.93 318.99)">Te desea</text><text class="cls-6" transform="translate(117.1 786.72)">N<tspan class="cls-7" x="129.15" y="0">A</tspan><tspan class="cls-8" x="256.76" y="0">VI</tspan><tspan class="cls-9" x="462.47" y="0">D</tspan><tspan class="cls-10" x="584.92" y="0">AD</tspan></text><text class="cls-11" transform="translate(290.28 561.77)">Feliz</text><text class="cls-12" transform="translate(294.84 865.55)"><tspan class="cls-13">y</tspan><tspan x="23.35" y="0" xml:space="preserve"> p</tspan><tspan class="cls-14" x="60.97" y="0">r</tspan><tspan x="88.66" y="0">ospe</tspan><tspan class="cls-14" x="193.03" y="0">r</tspan><tspan x="220.71" y="0">o</tspan><tspan class="cls-15" x="249.15" y="0"> </tspan><tspan x="259.32" y="0">año nue</tspan><tspan class="cls-14" x="435.07" y="0">v</tspan><tspan x="461.89" y="0">o</tspan></text></svg>