<svg id="Capa_1" data-name="Capa 1" xmlns="http://www.w3.org/2000/svg" viewBox="0 0 1080 555.58"><defs><style>.cls-1,.cls-10{fill:#e48013;}.cls-2,.cls-9{fill:#eb8e1c;}.cls-3{fill:#c67515;}.cls-4{fill:#fff;}.cls-5{font-size:178.77px;fill:#f5f2e8;font-family:HaginCapsThin, Hagin Caps Thin;}.cls-6{letter-spacing:-0.03em;}.cls-7{letter-spacing:0em;}.cls-8{letter-spacing:-0.01em;}.cls-9{font-size:190.97px;}.cls-10,.cls-9{font-family:HaginCapsMedium, Hagin Caps Medium;}.cls-10{font-size:113.91px;}.cls-11{letter-spacing:-0.02em;}.cls-12{letter-spacing:-0.01em;}.cls-13{letter-spacing:-0.01em;}.cls-14{letter-spacing:-0.02em;}.cls-15{letter-spacing:-0.01em;}</style></defs><path class="cls-1" d="M393.65,138.14c-.8,3-1.74,6.61-2.69,10.19q-4.75,17.89-9.53,35.78c-.87,3.27-3.21,4.78-6.05,3.94-2-.6-2.84-2.16-3.32-4.07-2.3-9.25-4.65-18.49-7-27.73Q358.55,130.42,352,104.6a6.49,6.49,0,0,1-.35-3.24A4.63,4.63,0,0,1,355,97.84a4.46,4.46,0,0,1,4.66,1.41q10.1,10.56,20.17,21.13c3.79,4,7.55,8,11.38,11.89A8,8,0,0,1,393.65,138.14Z"/><path class="cls-2" d="M399.19,131.94a7.38,7.38,0,0,1-5.41-2.47q-12.42-13-24.86-26l-6-6.25c-2-2.15-2.45-4.24-1.18-6.3s3.22-2.59,6.16-1.67l56.15,17.54c5.87,1.84,11.74,3.66,17.59,5.55a4.57,4.57,0,0,1,3,6.51,4.67,4.67,0,0,1-3.32,2.52q-20.14,5.16-40.31,10.3C400.37,131.8,399.68,131.86,399.19,131.94Z"/><path class="cls-3" d="M385.16,185.72c.63-2.28,1.41-5.19,2.23-8.09q5.13-18.12,10.25-36.22c.81-2.9,2.23-5.07,5.34-5.89,13.36-3.54,26.69-7.14,40-10.68,3.1-.83,5.61.79,6.06,3.79a4.68,4.68,0,0,1-1.49,4.09l-29.86,31.22q-11.94,12.5-23.86,25a11.51,11.51,0,0,1-1.35,1.26,4.39,4.39,0,0,1-5,.38C385.81,189.71,385.07,188.28,385.16,185.72Z"/><path class="cls-4" d="M653.24,142.52c4.82,5.77,6.26,12.27,5.22,19.41-.36,2.46-1.07,3-3.55,3-1.3,0-2.61,0-3.91,0-2.49-.13-3.13-.78-3.2-3.26-.07-2.27-.07-4.54-.16-6.8a9.73,9.73,0,0,0-9.85-9.54l-25.89-.06c-3.24,0-4.32,1.07-4.31,4.3,0,3.85,0,7.7.06,11.55,0,3.07-.69,3.8-3.7,3.82-1.3,0-2.6,0-3.9,0-2.31-.1-3-.81-3.13-3.15-.07-1.93,0-3.85,0-5.78q0-9.18,0-18.36c0-2.88.58-3.45,3.51-3.45h42.13c3.23,0,4.31-1.17,4.15-4.39a3.07,3.07,0,0,0-3.05-3.22c-1.09-.08-2.19,0-3.28,0q-19.73,0-39.45,0c-3.55,0-4-.48-4-4,0-1.72,0-3.44.07-5.16a2.47,2.47,0,0,1,2.66-2.73c.55,0,1.09-.05,1.64-.05q23,.11,46,.22c7.07.05,10.32,3.21,10.89,10.34a52.5,52.5,0,0,1,0,8C657.93,137,656.69,140.29,653.24,142.52Z"/><path class="cls-4" d="M499.07,114.6h21.79c3.45,0,4,.6,4,4.1a32.16,32.16,0,0,1-.16,5.55,2.29,2.29,0,0,1-2.32,2.17c-.95,0-1.91.15-2.86.16q-19.32,0-38.63,0c-4.58,0-5.64.94-5.71,5.48q-.12,8.15.05,16.29c.07,3.38,1.12,4.45,4.49,4.48,13.49.1,27,.11,40.47.14,4.19,0,4.67.5,4.68,4.76,0,1.38.07,2.76,0,4.13-.17,2.41-.79,3-3.17,3.1-.41,0-.82,0-1.23,0-12.26,0-24.52,0-36.78,0-3,0-6-.09-9-.22-5.61-.24-9.67-4.47-10.05-11a226.52,226.52,0,0,1,0-27.82c.39-6.13,3.74-11.33,11.85-11.1,3.88.11,9.9-.1,14.82-.18C495.49,114.53,498.92,114.6,499.07,114.6Z"/><path class="cls-4" d="M560.41,165H532.48c-2.53,0-2.65-.11-2.65-2.69,0-7.83,0-15.67,0-23.51,0-3.35,1.21-4.53,4.59-4.53H588c2.84,0,3.29.45,3.3,3.37,0,1.58,0,3.16,0,4.74,0,2.45-.61,3-3.06,3H544.1c-2.94,0-3.16.21-3.17,3.15,0,4.69,0,4.69,4.59,4.69h41.7c3,0,4.07,1.07,4.11,4.08,0,1.72,0,3.44,0,5.16s-.75,2.55-2.59,2.54C579.31,164.92,569.86,165,560.41,165Z"/><path class="cls-4" d="M665.27,114.59c4.91,0,7.08,1.33,9.27,5.22,5.58,9.91,11.57,19.59,17.4,29.36,1.59,2.65,2.83,2.67,4.4.06,6.19-10.35,12.4-20.69,18.51-31.08a6.62,6.62,0,0,1,6.13-3.57c1.63,0,3,0,4.51,0,2.85,0,3.72,1.48,2.28,3.93-2.57,4.37-5.21,8.71-7.82,13.05q-8.51,14.08-17,28.16c-4.57,7.56-13.31,7.57-17.85,0q-12.42-20.59-24.85-41.18a2.94,2.94,0,0,1-.36-3.1c.59-1.07,1.64-.87,2.71-.93S664.38,114.59,665.27,114.59Z"/><path class="cls-4" d="M560.3,126.57H532.58c-2.46,0-2.84-.36-2.87-2.86,0-1.92-.05-3.85.1-5.76.2-2.34,1.28-3.32,3.59-3.32q27.12,0,54.22,0c2.5,0,3.62,1.12,3.71,3.64.06,1.85,0,3.71,0,5.56,0,2.47-.27,2.74-2.69,2.74Z"/><text class="cls-5" transform="translate(442.06 361.37)">N<tspan class="cls-6" x="89.56" y="0">A</tspan><tspan class="cls-7" x="178.05" y="0">VI</tspan><tspan class="cls-8" x="320.71" y="0">D</tspan><tspan x="405.62" y="0">AD</tspan></text><text class="cls-9" transform="translate(51.41 361.37)">Feliz</text><text class="cls-10" transform="translate(56.82 466.8)"><tspan class="cls-11">y</tspan><tspan x="46.02" y="0" xml:space="preserve"> p</tspan><tspan class="cls-12" x="120.17" y="0">r</tspan><tspan x="174.73" y="0">ospe</tspan><tspan class="cls-13" x="380.44" y="0">r</tspan><tspan x="435" y="0">o</tspan><tspan class="cls-14" x="491.04" y="0"> </tspan><tspan x="511.09" y="0">año nue</tspan><tspan class="cls-15" x="857.47" y="0">v</tspan><tspan x="910.32" y="0">o</tspan></text></svg>